<?xml version="1.0" encoding="UTF-8" standalone="no"?>
<!-- Created with Inkscape (http://www.inkscape.org/) -->

<svg
   version="1.1"
   id="svg105"
   width="1821.3333"
   height="1365.3333"
   viewBox="0 0 1821.3333 1365.3333"
   sodipodi:docname="personalLogoV2.svg"
   xml:space="preserve"
   inkscape:version="1.3.2 (091e20e, 2023-11-25)"
   inkscape:export-filename="personalLogoV2.png"
   inkscape:export-xdpi="96"
   inkscape:export-ydpi="96"
   xmlns:inkscape="http://www.inkscape.org/namespaces/inkscape"
   xmlns:sodipodi="http://sodipodi.sourceforge.net/DTD/sodipodi-0.dtd"
   xmlns="http://www.w3.org/2000/svg"
   xmlns:svg="http://www.w3.org/2000/svg"><defs
     id="defs109"><inkscape:path-effect
       effect="fillet_chamfer"
       id="path-effect3"
       is_visible="true"
       lpeversion="1"
       nodesatellites_param="F,0,0,1,0,0,0,1 @ F,0,0,1,0,0,0,1 @ F,0,0,1,0,0,0,1 @ F,0,0,1,0,0,0,1 @ F,0,0,1,0,0,0,1 @ F,0,0,1,0,0,0,1 @ F,0,0,1,0,0,0,1 @ F,0,0,1,0,0,0,1 @ F,0,0,1,0,0,0,1 @ F,0,0,1,0,0,0,1 @ F,0,0,1,0,0,0,1 @ F,0,0,1,0,0,0,1 @ F,0,0,1,0,0,0,1 @ F,0,0,1,0,0,0,1 @ F,0,0,1,0,0,0,1 | F,0,0,1,0,0,0,1 @ F,0,0,1,0,0,0,1 @ F,0,0,1,0,0,0,1 @ F,0,0,1,0,0,0,1 @ F,0,0,1,0,0,0,1 @ F,0,0,1,0,0,0,1 @ F,0,0,1,0,0,0,1 @ F,0,0,1,0,0,0,1 @ F,0,0,1,0,0,0,1 @ F,0,0,1,0,0,0,1 @ F,0,0,1,0,0,0,1 @ F,0,0,1,0,0,0,1 @ F,0,0,1,0,0,0,1 @ F,0,0,1,0,0,0,1 @ F,0,0,1,0,0,0,1 | F,0,0,1,0,0,0,1 @ F,0,0,1,0,0,0,1 @ F,0,0,1,0,0,0,1 @ F,0,0,1,0,0,0,1 @ F,0,0,1,0,0,0,1 @ F,0,0,1,0,0,0,1 @ F,0,0,1,0,0,0,1 @ F,0,0,1,0,0,0,1 @ F,0,0,1,0,0,0,1 @ F,0,0,1,0,0,0,1 @ F,0,0,1,0,0,0,1 @ F,0,0,1,0,0,0,1 @ F,0,0,1,0,0,0,1 @ F,0,0,1,0,0,0,1 @ F,0,0,1,0,0,0,1 | F,0,0,1,0,0,0,1 @ F,0,0,1,0,0,0,1 @ F,0,0,1,0,0,0,1 @ F,0,0,1,0,0,0,1 @ F,0,0,1,0,0,0,1 @ F,0,0,1,0,0,0,1 @ F,0,0,1,0,0,0,1 @ F,0,0,1,0,0,0,1 @ F,0,0,1,0,0,0,1 @ F,0,0,1,0,0,0,1 @ F,0,0,1,0,0,0,1 @ F,0,0,1,0,0,0,1 @ F,0,0,1,0,0,0,1 @ F,0,0,1,0,0,0,1 @ F,0,0,1,0,0,0,1"
       radius="0"
       unit="px"
       method="auto"
       mode="F"
       chamfer_steps="1"
       flexible="false"
       use_knot_distance="true"
       apply_no_radius="true"
       apply_with_radius="true"
       only_selected="false"
       hide_knots="false" /><inkscape:path-effect
       effect="mirror_symmetry"
       start_point="910.66663,405.33649"
       end_point="910.66663,960.01507"
       center_point="910.66663,682.67578"
       id="path-effect2"
       is_visible="true"
       lpeversion="1.2"
       lpesatellites=""
       mode="free"
       discard_orig_path="false"
       fuse_paths="false"
       oposite_fuse="false"
       split_items="false"
       split_open="false"
       link_styles="false" /><inkscape:path-effect
       effect="offset"
       id="path-effect1"
       is_visible="true"
       lpeversion="1.2"
       linejoin_type="miter"
       unit="mm"
       offset="-4.7"
       miter_limit="4"
       attempt_force_join="false"
       update_on_knot_move="true" /></defs><sodipodi:namedview
     id="namedview107"
     pagecolor="#ffffff"
     bordercolor="#666666"
     borderopacity="1.0"
     inkscape:showpageshadow="2"
     inkscape:pageopacity="0.0"
     inkscape:pagecheckerboard="0"
     inkscape:deskcolor="#d1d1d1"
     showgrid="false"
     inkscape:zoom="0.5387742"
     inkscape:cx="916.89617"
     inkscape:cy="648.69476"
     inkscape:window-width="1512"
     inkscape:window-height="916"
     inkscape:window-x="0"
     inkscape:window-y="38"
     inkscape:window-maximized="0"
     inkscape:current-layer="g111"
     showguides="true" /><g
     inkscape:groupmode="layer"
     inkscape:label="Image"
     id="g111"><path
       style="fill:#1c1c48;fill-opacity:1;stroke-width:0.666667"
       d="m 910.29687,152.51172 c 153.54103,88.43145 307.07853,176.35406 459.50193,265.65234 -0.3851,176.85509 1.0916,353.59674 -1.0351,530.21485 -152.3913,88.93299 -304.9048,177.00659 -458.08597,264.46089 -152.9159,-87.9605 -306.08678,-176.6223 -458.97265,-264.1191 -0.10758,-177.26551 -0.21674,-354.53142 -0.32422,-531.79687 153.43759,-87.2287 305.7826,-176.2318 458.91601,-264.41211 z"
       id="path334"
       sodipodi:nodetypes="sssssss"
       inkscape:path-effect="#path-effect1"
       inkscape:original-d="m 1386.4449,958.6526 c 2.3568,-183.51568 0.6328,-367.15026 1.1126,-550.71857 -158.291,-92.81951 -317.856,-184.08574 -477.28092,-275.92938 -159.1582,91.59388 -317.2819,184.13264 -476.6646,274.63893 0.1116,184.11827 0.2232,368.23655 0.3349,552.35482 158.7692,90.8214 317.87385,182.9827 476.71975,274.3302 159.12747,-90.8092 317.50707,-182.2748 475.77827,-274.676 z" /><path
       style="fill:#f9f9f9;stroke-width:0.666667"
       d="m 830.84794,769.33153 c 5.0807,-10.98 5.20786,-11.6868 8.2415,-10.32194 13.65751,6.14463 26.24354,12.86491 71.57286,13.59142 l 0.003,-367.26452 -24.9673,25.00178 0.0176,32.68051 c -48.26396,13.4881 -64.03539,42.8956 -70.65908,73.79428 -6.09925,28.45219 1.27366,65.81407 19.68096,89.70827 0.76836,0.9974 -107.70293,227.19433 -107.70293,227.19433 0,0 -74.08123,-284.14515 -87.07347,-331.83106 l -63.95795,-35.20463 17.01794,68.06501 101.32757,405.27009 23.37639,-0.17514 23.98102,0.0264 z m 79.81869,-86.6649 -9.97502,8.05156 0.0369,17.88257 v 18.26715 c -15.92725,0.41993 -32.89636,-3.82566 -45.11703,-9.19358 h -4e-5 l 29.8659,-62.67612 0.01,-23.35861 0.01,-23.35861 c -9.22391,-6.0444 -16.89523,-13.21431 -21.87841,-22.37961 -4.71907,-8.67957 -6.95293,-19.04157 -6.52329,-28.91174 0.38905,-8.93786 3.7364,-17.79223 8.1597,-25.56854 3.07442,-5.40495 7.50506,-10.09298 12.37652,-13.95748 4.8816,-3.87254 11.84061,-6.83743 16.44139,-8.89493 3.34287,-1.49496 16.59338,-3.12692 16.59338,-3.12692 m 79.81869,263.88976 c -5.0807,-10.98 -5.20786,-11.6868 -8.2415,-10.32194 -13.65751,6.14463 -26.24354,12.86491 -71.57286,13.59142 l -0.003,-367.26452 24.9673,25.00178 -0.0176,32.68051 c 48.26396,13.4881 64.03539,42.8956 70.65904,73.79428 6.0993,28.45219 -1.2736,65.81407 -19.68092,89.70827 -0.76836,0.9974 107.70292,227.19433 107.70292,227.19433 0,0 74.0812,-284.14515 87.0735,-331.83106 l 63.9579,-35.20463 -17.0179,68.06501 -101.3276,405.27009 -23.3764,-0.17514 -23.981,0.0264 z m -79.81869,-86.6649 9.97502,8.05156 -0.0369,17.88257 v 18.26715 c 15.92725,0.41993 32.89636,-3.82566 45.11703,-9.19358 h 4e-5 l -29.8659,-62.67612 -0.01,-23.35861 -0.01,-23.35861 c 9.22391,-6.0444 16.89523,-13.21431 21.87841,-22.37961 4.71907,-8.67957 6.95293,-19.04157 6.52329,-28.91174 -0.38905,-8.93786 -3.7364,-17.79223 -8.1597,-25.56854 -3.07442,-5.40495 -7.50506,-10.09298 -12.37652,-13.95748 -4.8816,-3.87254 -11.84061,-6.83743 -16.44139,-8.89493 -3.34287,-1.49496 -16.59338,-3.12692 -16.59338,-3.12692"
       id="path656"
       sodipodi:nodetypes="csccccssccccccccccccccccaaaaasc"
       inkscape:path-effect="#path-effect2;#path-effect3"
       inkscape:original-d="m 830.84794,769.33153 c 5.0807,-10.98 5.20786,-11.6868 8.2415,-10.32194 13.65751,6.14463 26.24354,12.86491 71.57286,13.59142 l 0.003,-367.26452 -24.9673,25.00178 0.0176,32.68051 c -48.26396,13.4881 -64.03539,42.8956 -70.65908,73.79428 -6.09925,28.45219 1.27366,65.81407 19.68096,89.70827 0.76836,0.9974 -107.70293,227.19433 -107.70293,227.19433 0,0 -74.08123,-284.14515 -87.07347,-331.83106 l -63.95795,-35.20463 17.01794,68.06501 101.32757,405.27009 23.37639,-0.17514 23.98102,0.0264 z m 79.81869,-86.6649 -9.97502,8.05156 0.0369,17.88257 v 18.26715 c -15.92725,0.41993 -32.89636,-3.82566 -45.11703,-9.19358 h -4e-5 l 29.8659,-62.67612 0.01,-23.35861 0.01,-23.35861 c -9.22391,-6.0444 -16.89523,-13.21431 -21.87841,-22.37961 -4.71907,-8.67957 -6.95293,-19.04157 -6.52329,-28.91174 0.38905,-8.93786 3.7364,-17.79223 8.1597,-25.56854 3.07442,-5.40495 7.50506,-10.09298 12.37652,-13.95748 4.8816,-3.87254 11.84061,-6.83743 16.44139,-8.89493 3.34287,-1.49496 16.59338,-3.12692 16.59338,-3.12692"
       transform="matrix(1.109446,0,0,1.0868867,-99.673145,-59.315444)" /></g></svg>
