<?xml version="1.0" encoding="UTF-8" standalone="no"?>
<!-- Created with Inkscape (http://www.inkscape.org/) -->

<svg
   version="1.1"
   id="svg105"
   width="1821.3333"
   height="1365.3333"
   viewBox="0 0 1821.3333 1365.3333"
   sodipodi:docname="personalLogoV2.svg"
   xml:space="preserve"
   inkscape:version="1.3.2 (091e20e, 2023-11-25)"
   inkscape:export-filename="..\..\..\Users\willr\OneDrive\Desktop\personalLogoV2.svg"
   inkscape:export-xdpi="96"
   inkscape:export-ydpi="96"
   xmlns:inkscape="http://www.inkscape.org/namespaces/inkscape"
   xmlns:sodipodi="http://sodipodi.sourceforge.net/DTD/sodipodi-0.dtd"
   xmlns="http://www.w3.org/2000/svg"
   xmlns:svg="http://www.w3.org/2000/svg"><defs
     id="defs109"><inkscape:path-effect
       effect="fillet_chamfer"
       id="path-effect3"
       is_visible="true"
       lpeversion="1"
       nodesatellites_param="F,0,0,1,0,0,0,1 @ F,0,0,1,0,0,0,1 @ F,0,0,1,0,0,0,1 @ F,0,0,1,0,0,0,1 @ F,0,0,1,0,0,0,1 @ F,0,0,1,0,0,0,1 @ F,0,0,1,0,0,0,1 @ F,0,0,1,0,0,0,1 @ F,0,0,1,0,0,0,1 @ F,0,0,1,0,0,0,1 @ F,0,0,1,0,0,0,1 @ F,0,0,1,0,0,0,1 @ F,0,0,1,0,0,0,1 @ F,0,0,1,0,0,0,1 @ F,0,0,1,0,0,0,1 | F,0,0,1,0,0,0,1 @ F,0,0,1,0,0,0,1 @ F,0,0,1,0,0,0,1 @ F,0,0,1,0,0,0,1 @ F,0,0,1,0,0,0,1 @ F,0,0,1,0,0,0,1 @ F,0,0,1,0,0,0,1 @ F,0,0,1,0,0,0,1 @ F,0,0,1,0,0,0,1 @ F,0,0,1,0,0,0,1 @ F,0,0,1,0,0,0,1 @ F,0,0,1,0,0,0,1 @ F,0,0,1,0,0,0,1 @ F,0,0,1,0,0,0,1 @ F,0,0,1,0,0,0,1 | F,0,0,1,0,0,0,1 @ F,0,0,1,0,0,0,1 @ F,0,0,1,0,0,0,1 @ F,0,0,1,0,0,0,1 @ F,0,0,1,0,0,0,1 @ F,0,0,1,0,0,0,1 @ F,0,0,1,0,0,0,1 @ F,0,0,1,0,0,0,1 @ F,0,0,1,0,0,0,1 @ F,0,0,1,0,0,0,1 @ F,0,0,1,0,0,0,1 @ F,0,0,1,0,0,0,1 @ F,0,0,1,0,0,0,1 @ F,0,0,1,0,0,0,1 @ F,0,0,1,0,0,0,1 | F,0,0,1,0,0,0,1 @ F,0,0,1,0,0,0,1 @ F,0,0,1,0,0,0,1 @ F,0,0,1,0,0,0,1 @ F,0,0,1,0,0,0,1 @ F,0,0,1,0,0,0,1 @ F,0,0,1,0,0,0,1 @ F,0,0,1,0,0,0,1 @ F,0,0,1,0,0,0,1 @ F,0,0,1,0,0,0,1 @ F,0,0,1,0,0,0,1 @ F,0,0,1,0,0,0,1 @ F,0,0,1,0,0,0,1 @ F,0,0,1,0,0,0,1 @ F,0,0,1,0,0,0,1"
       radius="0"
       unit="px"
       method="auto"
       mode="F"
       chamfer_steps="1"
       flexible="false"
       use_knot_distance="true"
       apply_no_radius="true"
       apply_with_radius="true"
       only_selected="false"
       hide_knots="false" /><inkscape:path-effect
       effect="mirror_symmetry"
       start_point="910.66663,405.33649"
       end_point="910.66663,960.01507"
       center_point="910.66663,682.67578"
       id="path-effect2"
       is_visible="true"
       lpeversion="1.2"
       lpesatellites=""
       mode="free"
       discard_orig_path="false"
       fuse_paths="false"
       oposite_fuse="false"
       split_items="false"
       split_open="false"
       link_styles="false" /><inkscape:path-effect
       effect="offset"
       id="path-effect1"
       is_visible="true"
       lpeversion="1.2"
       linejoin_type="miter"
       unit="mm"
       offset="-4.7"
       miter_limit="4"
       attempt_force_join="false"
       update_on_knot_move="true" /></defs><sodipodi:namedview
     id="namedview107"
     pagecolor="#ffffff"
     bordercolor="#666666"
     borderopacity="1.0"
     inkscape:showpageshadow="2"
     inkscape:pageopacity="0.0"
     inkscape:pagecheckerboard="0"
     inkscape:deskcolor="#d1d1d1"
     showgrid="false"
     inkscape:zoom="0.5387742"
     inkscape:cx="916.89617"
     inkscape:cy="648.69476"
     inkscape:window-width="1512"
     inkscape:window-height="916"
     inkscape:window-x="0"
     inkscape:window-y="38"
     inkscape:window-maximized="0"
     inkscape:current-layer="g111"
     showguides="true" /><g
     inkscape:groupmode="layer"
     inkscape:label="Image"
     id="g111"><path
       style="fill:#1c1c48;fill-opacity:1;stroke-width:0.666667"
       d="m 910.29687,152.51172 c 153.54103,88.43145 307.07853,176.35406 459.50193,265.65234 -0.3851,176.85509 1.0916,353.59674 -1.0351,530.21485 -152.3913,88.93299 -304.9048,177.00659 -458.08597,264.46089 -152.9159,-87.9605 -306.08678,-176.6223 -458.97265,-264.1191 -0.10758,-177.26551 -0.21674,-354.53142 -0.32422,-531.79687 153.43759,-87.2287 305.7826,-176.2318 458.91601,-264.41211 z"
       id="path334"
       sodipodi:nodetypes="sssssss"
       inkscape:path-effect="#path-effect1"
       inkscape:original-d="m 1386.4449,958.6526 c 2.3568,-183.51568 0.6328,-367.15026 1.1126,-550.71857 -158.291,-92.81951 -317.856,-184.08574 -477.28092,-275.92938 -159.1582,91.59388 -317.2819,184.13264 -476.6646,274.63893 0.1116,184.11827 0.2232,368.23655 0.3349,552.35482 158.7692,90.8214 317.87385,182.9827 476.71975,274.3302 159.12747,-90.8092 317.50707,-182.2748 475.77827,-274.676 z" /><path
       style="fill:#f9f9f9;stroke-width:0.666667"
       d="m 830.84794,769.33153 c 5.0807,-10.98 5.20786,-11.6868 8.2415,-10.32194 13.65751,6.14463 26.24354,12.86491 71.57286,13.59142 l 0.003,-367.26452 -24.9673,25.00178 0.0176,32.68051 c -48.26396,13.4881 -64.03539,42.8956 -70.65908,73.79428 -6.09925,28.45219 1.27366,65.81407 19.68096,89.70827 0.76836,0.9974 -107.70293,227.19433 -107.70293,227.19433 0,0 -74.08123,-284.14515 -87.07347,-331.83106 l -63.95795,-35.20463 17.01794,68.06501 101.32757,405.27009 23.37639,-0.17514 23.98102,0.0264 z m 79.81869,-86.6649 -9.97502,8.05156 0.0369,17.88257 v 18.26715 c -15.92725,0.41993 -32.89636,-3.82566 -45.11703,-9.19358 h -4e-5 l 29.8659,-62.67612 0.01,-23.35861 0.01,-23.35861 c -9.22391,-6.0444 -16.89523,-13.21431 -21.87841,-22.37961 -4.71907,-8.67957 -6.95293,-19.04157 -6.52329,-28.91174 0.38905,-8.93786 3.7364,-17.79223 8.1597,-25.56854 3.07442,-5.40495 7.50506,-10.09298 12.37652,-13.95748 4.8816,-3.87254 11.84061,-6.83743 16.44139,-8.89493 3.34287,-1.49496 16.59338,-3.12692 16.59338,-3.12692 m 79.81869,263.88976 c -5.0807,-10.98 -5.20786,-11.6868 -8.2415,-10.32194 -13.65751,6.14463 -26.24354,12.86491 -71.57286,13.59142 l -0.003,-367.26452 24.9673,25.00178 -0.0176,32.68051 c 48.26396,13.4881 64.03539,42.8956 70.65904,73.79428 6.0993,28.45219 -1.2736,65.81407 -19.68092,89.70827 -0.76836,0.9974 107.70292,227.19433 107.70292,227.19433 0,0 74.0812,-284.14515 87.0735,-331.83106 l 63.9579,-35.20463 -17.0179,68.06501 -101.3276,405.27009 -23.3764,-0.17514 -23.981,0.0264 z m -79.81869,-86.6649 9.97502,8.05156 -0.0369,17.88257 v 18.26715 c 15.92725,0.41993 32.89636,-3.82566 45.11703,-9.19358 h 4e-5 l -29.8659,-62.67612 -0.01,-23.35861 -0.01,-23.35861 c 9.22391,-6.0444 16.89523,-13.21431 21.87841,-22.37961 4.71907,-8.67957 6.95293,-19.04157 6.52329,-28.91174 -0.38905,-8.93786 -3.7364,-17.79223 -8.1597,-25.56854 -3.07442,-5.40495 -7.50506,-10.09298 -12.37652,-13.95748 -4.8816,-3.87254 -11.84061,-6.83743 -16.44139,-8.89493 -3.34287,-1.49496 -16.59338,-3.12692 -16.59338,-3.12692"
       id="path656"
       sodipodi:nodetypes="csccccssccccccccccccccccaaaaasc"
       inkscape:path-effect="#path-effect2;#path-effect3"
       inkscape:original-d="m 830.84794,769.33153 c 5.0807,-10.98 5.20786,-11.6868 8.2415,-10.32194 13.65751,6.14463 26.24354,12.86491 71.57286,13.59142 l 0.003,-367.26452 -24.9673,25.00178 0.0176,32.68051 c -48.26396,13.4881 -64.03539,42.8956 -70.65908,73.79428 -6.09925,28.45219 1.27366,65.81407 19.68096,89.70827 0.76836,0.9974 -107.70293,227.19433 -107.70293,227.19433 0,0 -74.08123,-284.14515 -87.07347,-331.83106 l -63.95795,-35.20463 17.01794,68.06501 101.32757,405.27009 23.37639,-0.17514 23.98102,0.0264 z m 79.81869,-86.6649 -9.97502,8.05156 0.0369,17.88257 v 18.26715 c -15.92725,0.41993 -32.89636,-3.82566 -45.11703,-9.19358 h -4e-5 l 29.8659,-62.67612 0.01,-23.35861 0.01,-23.35861 c -9.22391,-6.0444 -16.89523,-13.21431 -21.87841,-22.37961 -4.71907,-8.67957 -6.95293,-19.04157 -6.52329,-28.91174 0.38905,-8.93786 3.7364,-17.79223 8.1597,-25.56854 3.07442,-5.40495 7.50506,-10.09298 12.37652,-13.95748 4.8816,-3.87254 11.84061,-6.83743 16.44139,-8.89493 3.34287,-1.49496 16.59338,-3.12692 16.59338,-3.12692"
       transform="matrix(1.109446,0,0,1.0868867,-99.673145,-59.315444)" /><path
       style="fill:#606982;fill-opacity:1;stroke-width:1.85607"
       d="m 804.60423,1150.6281 c -57.16681,-33.0634 -159.66522,-92.0795 -227.77425,-131.147 l -123.8346,-71.03182 -0.0577,-265.53117 -0.0577,-265.53114 102.5476,-58.84178 c 56.40118,-32.36297 159.32268,-91.67005 228.71446,-131.79351 l 126.16686,-72.95174 67.79194,38.95502 c 93.66276,53.82103 266.00886,153.39259 334.60136,193.31316 l 57.074,33.21686 -0.2544,189.41152 c -0.1399,104.17631 -0.7663,223.1976 -1.3921,264.49173 l -1.1376,75.08023 -26.913,15.63774 c -229.6789,133.4547 -427.75674,247.2459 -429.96774,247.0067 -0.86207,-0.093 -48.34023,-27.2214 -105.50704,-60.2848 z M 774.11726,879.77487 C 801.38431,822.60806 824.9596,773.60442 826.5068,770.87789 l 2.81311,-4.95734 11.65848,4.70908 c 17.32314,6.99712 36.37322,9.70876 68.71441,9.78099 32.60986,0.0729 55.53495,-3.12628 71.84672,-10.02596 l 10.52729,-4.45292 2.66525,4.95174 c 1.46588,2.72346 25.04884,51.72458 52.40664,108.89139 l 49.7415,103.93964 27.4041,0.49602 27.4041,0.49601 65.5678,-257.2649 c 36.0622,-141.49569 65.2733,-257.55932 64.9134,-257.91921 -0.3599,-0.35988 -16.6586,7.85915 -36.2194,18.26451 l -35.5652,18.91884 -3.8506,13.92049 c -2.1178,7.65626 -22.2735,82.8269 -44.7905,167.04586 -22.5169,84.21895 -42.4598,158.55436 -44.3177,165.18979 l -3.3779,12.06443 -26.4146,-53.82589 c -41.2419,-84.04018 -88.58501,-182.0804 -89.84951,-186.06446 -0.74966,-2.36203 1.14041,-7.41424 5.45121,-14.57132 21.8677,-36.30577 21.5391,-90.15445 -0.76,-124.52909 -11.71081,-18.05251 -27.97731,-30.40032 -51.03385,-38.73945 l -11.34457,-4.10315 -0.52894,-17.37932 -0.52894,-17.37934 -13.34509,-13.45648 c -7.33981,-7.40106 -14.22214,-13.45647 -15.29407,-13.45647 -1.07193,0 -7.95426,6.05541 -15.29407,13.45647 l -13.34509,13.45648 -0.52894,17.31077 -0.52894,17.31078 -13.10701,5.09484 c -33.81315,13.14356 -52.35296,33.96468 -62.19851,69.85199 -7.98681,29.11225 -1.80062,71.19103 13.99139,95.16998 l 6.0045,9.11739 -30.86363,63.83011 c -67.51931,139.63889 -86.43488,177.79027 -87.51921,176.52007 -0.62261,-0.72932 -18.38135,-66.05632 -39.46388,-145.17109 -43.82063,-164.4424 -56.06292,-209.56232 -57.09791,-210.43896 -2.68203,-2.27173 -70.82544,-38.4007 -71.38075,-37.84539 -0.55708,0.55708 127.25695,504.83791 130.09684,513.28748 0.6086,1.8108 7.23503,2.2487 28.08633,1.85607 l 27.2898,-0.51386 z"
       id="path1" /><path
       style="fill:#606982;fill-opacity:1;stroke-width:1.85607"
       d="m 879.77487,728.25937 c -5.6146,-0.91756 -14.20734,-2.98563 -19.09499,-4.59571 -10.80868,-3.56056 -11.31402,-1.08867 8.2071,-40.14585 l 14.60002,-29.2112 v -26.10469 -26.10469 l -10.89948,-10.09098 c -14.1771,-13.1255 -19.57002,-24.83069 -19.63211,-42.61097 -0.0804,-23.01742 12.14012,-41.78708 34.06423,-52.31979 29.34304,-14.09689 66.51217,1.2664 78.11937,32.28944 8.92237,23.84716 0.69805,51.21691 -19.81724,65.94987 l -8.00888,5.75155 v 25.46173 25.46173 l 16.47605,34.27882 16.47606,34.27883 -9.51581,2.96656 c -8.64665,2.69562 -30.24253,6.79899 -35.96474,6.83359 -1.71388,0.0104 -2.32009,-5.22943 -2.32009,-20.05365 V 690.2263 l -5.49303,-4.06119 c -6.78332,-5.01512 -7.23096,-4.99697 -13.53163,0.54862 -4.96166,4.36702 -5.10418,5.03914 -5.10418,24.07018 0,22.28564 1.60813,20.77154 -18.56065,17.47546 z"
       id="path2" /></g></svg>
